<svg width="44" height="21" xmlns="http://www.w3.org/2000/svg" xmlns:xlink="http://www.w3.org/1999/xlink" xml:space="preserve" overflow="hidden"><defs><clipPath id="clip0"><rect x="0" y="0" width="44" height="21"/></clipPath></defs><g clip-path="url(#clip0)"><path d="M8.88962 6.81941C3.93021 6.99692 0 9.33538 0 12.1775 0 15.1352 4.25533 17.5357 9.49849 17.5357 14.7417 17.5357 18.997 15.1352 18.997 12.1775 18.997 9.21985 14.7417 6.81941 9.49849 6.81941 9.29369 6.81941 9.09122 6.81219 8.88962 6.81941ZM7.30653 7.8545C8.62941 7.71908 10.2954 8.33248 11.6905 9.58981 13.7801 11.4731 14.4876 14.1138 13.2735 15.4959L13.2431 15.5264C12.005 16.9001 9.28558 16.476 7.18476 14.5826 5.08393 12.6892 4.39404 10.0198 5.63212 8.64605 6.04804 8.18456 6.63731 7.92301 7.30653 7.8545Z" fill="#000000" fill-opacity="0.9" transform="matrix(1.01815 0 0 1 -67.4749 -76.9936)"/><path d="M231.554 212.555C228.245 214.328 226.483 217.538 227.567 219.952 228.724 222.528 232.698 223.255 236.439 221.575 240.179 219.895 242.276 216.441 241.12 213.866 239.963 211.291 235.988 210.564 232.248 212.244 232.014 212.349 231.774 212.437 231.554 212.555ZM232.635 214.74C232.87 214.619 233.108 214.527 233.357 214.415 236.545 212.983 239.625 212.916 240.231 214.265 240.837 215.614 238.741 217.871 235.552 219.303 232.363 220.735 229.284 220.803 228.678 219.454 228.119 218.21 229.862 216.169 232.635 214.74Z" fill="#000000" fill-rule="evenodd" fill-opacity="0.9" transform="matrix(-1.01815 0 0 -1 178.344 224.946)"/><path d="M228.015 218.725 228.015 251.447" stroke="#000000" stroke-width="1.46131" fill="none" fill-rule="evenodd" transform="matrix(-1.01815 0 0 -1 178.344 224.946)"/><path d="M295.318 291.921C292.009 293.694 290.247 296.904 291.331 299.319 292.488 301.894 296.462 302.621 300.203 300.941 303.943 299.261 306.04 295.807 304.884 293.232 303.727 290.657 299.752 289.93 296.012 291.61 295.778 291.715 295.538 291.803 295.318 291.921Z" fill="#000000" fill-rule="evenodd" fill-opacity="0.9" transform="matrix(-1.01815 0 0 -1 243.265 377.378)"/><path d="M291.779 298.091 291.779 330.813" stroke="#000000" stroke-width="1.46131" fill="none" fill-rule="evenodd" transform="matrix(-1.01815 0 0 -1 243.265 377.378)"/><path d="M10.8389 197.202 11.7795 197.202C12.0147 198.702 12.3086 199.965 12.7005 200.991 13.0729 201.997 13.5236 202.866 14.0135 203.596 14.523 204.326 15.2873 205.253 16.3063 206.398 17.3253 207.543 18.1287 208.51 18.7558 209.319 20.6371 211.746 21.5777 214.292 21.5777 216.936 21.5777 219.66 20.4411 222.975 18.1287 226.882L17.5016 226.882C17.7956 226.192 18.1483 225.402 18.5403 224.514 18.9126 223.607 19.2457 222.797 19.5201 222.067 19.7748 221.337 19.9904 220.607 20.1472 219.877 20.2843 219.147 20.3627 218.436 20.3627 217.726 20.3627 216.601 20.1472 215.476 19.6964 214.351 19.2457 213.206 18.599 212.16 17.7956 211.193 16.9725 210.227 16.0515 209.457 15.0129 208.845 13.9743 208.253 12.8965 207.918 11.7795 207.858L11.7795 230.198C11.7795 231.461 11.4072 232.605 10.6233 233.592 9.85907 234.579 8.85965 235.349 7.64468 235.881 6.4493 236.414 5.25392 236.671 4.05855 236.671 2.92195 236.671 1.96174 236.375 1.19747 235.802 0.45281 235.23 0.0608878 234.382 0.0608878 233.276 0.0608878 232.112 0.45281 231.027 1.21707 230.02 1.98133 229.034 2.96114 228.244 4.13693 227.672 5.31271 227.1 6.4493 226.804 7.54669 226.804 9.07521 226.804 10.1726 227.1 10.8389 227.711L10.8389 207.543 10.8389 197.202Z" stroke="#131516" stroke-width="0.058996" fill="#131516" fill-rule="evenodd" transform="matrix(1.01815 0 0 1 -67.4749 -76.9936)"/><path d="M10.6819 300.856 10.6819 270.346 11.7009 270.346C11.8381 271.866 12.1712 273.05 12.7199 273.859 13.249 274.668 14.1308 275.635 15.385 276.72 16.6195 277.825 17.5797 278.832 18.2852 279.74 19.3042 281.022 20.0684 282.266 20.6171 283.45 21.1462 284.634 21.4206 285.995 21.4206 287.555 21.4206 288.758 21.2442 290.002 20.8719 291.304 21.5577 292.232 21.8909 293.692 21.8909 295.646 21.8909 296.909 21.7341 298.152 21.401 299.395 21.0482 300.638 20.5583 301.724 19.9117 302.632L19.265 302.632C20.4995 300.224 21.107 298.112 21.107 296.317 21.107 292.883 19.1278 290.159 15.1498 288.147 14.8559 287.989 14.4444 287.732 13.9153 287.357 13.3666 287.002 12.9355 286.706 12.6611 286.528 12.3672 286.351 12.0537 286.173 11.7009 286.055L11.7009 303.421C11.7009 304.605 11.309 305.691 10.5448 306.658 9.76093 307.625 8.78112 308.374 7.58577 308.927 6.39041 309.46 5.21464 309.736 4.05848 309.736 2.9415 309.736 2.0205 309.479 1.29544 308.967 0.550787 308.453 0.139271 307.684 0.0608878 306.658 0.0608878 305.493 0.452813 304.388 1.25625 303.342 2.05969 302.296 3.07868 301.467 4.29363 300.856 5.52818 300.244 6.70394 299.948 7.86011 299.948 9.05547 299.948 9.99608 300.244 10.6819 300.856ZM11.9361 277.687C11.9361 279.424 12.3868 280.924 13.2882 282.187 14.2092 283.45 15.5026 284.89 17.2074 286.528 18.8927 288.166 19.9509 289.39 20.382 290.219 20.4799 289.706 20.5191 289.153 20.5191 288.561 20.5191 287.258 20.2644 286.035 19.7353 284.93 19.2062 283.805 18.5203 282.798 17.6973 281.93 16.8743 281.062 15.9729 280.292 15.0127 279.601 14.0329 278.911 13.0139 278.279 11.9361 277.687Z" stroke="#131516" stroke-width="0.0589955" fill="#131516" fill-rule="evenodd" transform="matrix(1.01815 0 0 1 -67.4749 -76.9936)"/><path d="M10.7605 373.921 10.7605 337.688 11.7207 337.688C11.8383 339.011 12.0931 340.056 12.485 340.787 12.8769 341.517 13.4452 342.267 14.2487 343.017 15.0325 343.767 16.1495 344.813 17.58 346.174 20.1472 348.661 21.4209 351.582 21.4209 354.976 21.4209 356.14 21.2641 357.285 20.9506 358.449 21.2641 359.436 21.4209 360.502 21.4209 361.607 21.4209 362.475 21.3033 363.481 21.029 364.606 21.6561 365.415 21.9696 366.698 21.9696 368.474 21.9696 369.698 21.8129 370.961 21.4601 372.224 21.127 373.487 20.6371 374.612 19.9708 375.618L19.3437 375.618C20.5195 373.151 21.1074 371.02 21.1074 369.224 21.1074 368.08 20.8918 367.034 20.4411 366.106 19.9904 365.159 19.3633 364.31 18.5599 363.541 17.7564 362.791 16.8942 362.08 15.9535 361.429 15.0129 360.797 13.602 359.87 11.7207 358.686L11.7207 376.486C11.7207 377.651 11.3288 378.716 10.5449 379.683 9.76109 380.65 8.78126 381.42 7.58589 381.973 6.39051 382.525 5.21473 382.801 4.05855 382.801 2.88277 382.801 1.92254 382.505 1.17788 381.933 0.433219 381.341 0.0608878 380.473 0.0608878 379.328 0.0608878 378.203 0.472411 377.157 1.27587 376.19 2.05972 375.223 3.07873 374.454 4.2937 373.862 5.50868 373.289 6.64526 373.013 7.72306 373.013 8.99683 373.013 10.0158 373.309 10.7605 373.921ZM11.8579 344.872C11.8579 346.036 12.1322 347.043 12.6418 347.852 13.1513 348.681 14.0527 349.687 15.3264 350.871 16.6002 352.055 17.5996 353.022 18.3247 353.811 19.0498 354.601 19.7356 355.667 20.3627 356.989 20.4411 356.515 20.4803 356.061 20.4803 355.647 20.4803 354.029 20.0492 352.568 19.1673 351.246 18.2855 349.904 17.3057 348.819 16.1887 347.95 15.0913 347.082 13.6412 346.056 11.8579 344.872ZM11.7795 351.739C11.8579 352.983 12.2106 354.088 12.8377 355.075 13.4648 356.061 14.2487 357.008 15.2089 357.936 16.1691 358.844 17.1685 359.771 18.1875 360.738 19.2065 361.705 19.9316 362.593 20.3627 363.383 20.4019 363.166 20.4019 362.85 20.4019 362.435 20.4019 358.449 17.5408 354.877 11.7795 351.739Z" stroke="#131516" stroke-width="0.058996" fill="#131516" fill-rule="evenodd" transform="matrix(1.01815 0 0 1 -67.4749 -76.9936)"/><path d="M75.2837 134.124C76.0953 134.99 82.3176 142.619 82.3176 142.619 82.3176 142.619 78.8548 145.919 78.8548 149.382 78.8548 153.44 83.5079 157.119 83.5079 157.119L83.021 157.715C81.2355 156.687 78.2055 156.578 76.8528 158.147 75.1755 160.095 78.963 163.071 78.963 163.071L78.5301 163.666C77.2315 162.692 71.7127 157.498 74.0393 154.955 75.446 153.386 77.1774 152.899 79.6123 154.198L73.0653 147.434C76.8528 142.781 77.5021 141.428 77.5021 140.184 77.5021 137.587 75.6625 135.747 74.7426 134.557 74.418 134.07 73.8228 133.691 74.2016 133.367 74.5803 133.096 74.7968 133.529 75.2837 134.124Z" transform="matrix(1.01815 0 0 1 -67.4749 -76.9936)"/><path d="M104.028 163.423 102.323 163.423 97.664 145.537C100.072 147.629 101.497 149.363 103.526 149.601 103.526 149.601 102.745 148.625 102.816 146.912 102.884 145.26 103.777 144.235 105.554 144.172 107.271 144.11 108.734 145.779 108.601 147.508 108.467 149.242 106.763 150.705 105.424 150.693 101.67 150.66 99.6365 148.837 98.4469 146.746L104.028 163.423Z" stroke="#000000" stroke-width="0.48711" fill-rule="evenodd" transform="matrix(1.01815 0 0 1 -67.4749 -76.9936)"/><path d="M79.0056 309.553 89.0493 280.929C87.0067 283.022 85.3492 284.677 83.2484 285.298 83.6608 284.513 84.3302 283.994 84.3238 282.913 84.3159 281.664 83.2711 279.76 80.8547 279.808 78.4992 279.856 77.6207 281.507 77.565 283.083 77.5071 284.72 78.6216 286.414 80.9247 286.512 83.236 286.61 87.0769 285.021 88.3882 281.956 87.6815 283.508 85.2439 290.425 83.9095 293.224 82.3926 295.415 80.2895 296.998 79.1542 297.293 79.8455 296.127 80.104 295.501 80.038 294.467 79.934 292.84 78.6233 291.44 76.6282 291.423 74.6317 291.406 73.3211 292.784 73.309 294.858 73.2969 296.93 74.9087 298.191 76.5969 298.206 80.4003 298.241 82.2536 296.395 83.6347 293.904L77.3914 309.511 79.0056 309.553Z" stroke="#000000" stroke-width="0.487102" fill-rule="evenodd" transform="matrix(1.01815 0 0 1 -67.4749 -76.9936)"/><path d="M77.7033 382.619 79.7735 382.619 93.0784 344.701C91.0358 346.793 89.3783 348.448 87.2775 349.07 87.6898 348.285 88.3593 347.765 88.3529 346.685 88.345 345.435 87.3001 343.531 84.8838 343.579 82.5283 343.628 81.6497 345.278 81.594 346.854 81.5362 348.491 82.6507 350.185 84.9537 350.283 87.2651 350.382 91.106 348.792 92.4173 345.727 91.7106 347.279 89.2729 354.196 87.9386 356.995 86.4216 359.186 84.3186 360.769 83.1832 361.065 83.8745 359.899 84.133 359.272 84.067 358.238 83.963 356.611 82.6524 355.211 80.6573 355.194 78.6607 355.177 77.3501 356.556 77.338 358.629 77.3259 360.701 78.9378 361.963 80.6259 361.978 84.4294 362.012 86.2827 360.166 87.6637 357.676 87.6637 357.676 85.1006 363.856 83.7521 367.504 83.1952 368.351 80.5246 370.609 79.2864 370.867 79.8139 370.03 80.0484 369.971 80.017 368.598 79.9857 367.164 78.4996 365.556 76.6534 365.503 74.8045 365.45 73.3015 366.74 73.3089 368.762 73.3163 370.782 74.9832 372.291 76.6012 372.293 79.7563 372.297 82.0507 370.85 83.1267 368.997L77.7033 382.619Z" stroke="#000000" stroke-width="0.487103" fill-rule="evenodd" transform="matrix(1.01815 0 0 1 -67.4749 -76.9936)"/><path d="M80.6144 11.6904 95.7146 11.6904 95.7146 17.5357 80.6144 17.5357Z" fill="#000000" fill-rule="evenodd" fill-opacity="0.9" transform="matrix(1.01815 0 0 1 -67.4749 -76.9936)"/><path d="M101.694 11.4081 73.5524 11.4081" stroke="#000000" stroke-width="0.974189" fill="none" fill-rule="evenodd" transform="matrix(1.01815 0 0 1 -67.4749 -76.9936)"/><path d="M80.6144-89.8316 95.7146-89.8316 95.7146-83.9864 80.6144-83.9864Z" fill="#000000" fill-rule="evenodd" fill-opacity="0.9" transform="matrix(1.01815 0 0 -1 -67.4749 -76.9936)"/><path d="M101.694 90.1139 73.5524 90.1139" stroke="#000000" stroke-width="0.974189" fill="none" fill-rule="evenodd" transform="matrix(1.01815 0 0 1 -67.4749 -76.9936)"/><path d="M77.89 236.488 79.5949 236.488 84.2537 218.602C81.8458 220.694 80.4212 222.428 78.3919 222.667 78.3919 222.667 79.1725 221.69 79.102 219.977 79.034 218.325 78.1407 217.301 76.3635 217.237 74.6471 217.176 73.184 218.844 73.3173 220.573 73.4511 222.307 75.1546 223.77 76.4943 223.758 80.2478 223.726 82.2813 221.902 83.4708 219.811L77.89 236.488Z" stroke="#000000" stroke-width="0.487102" fill-rule="evenodd" transform="matrix(1.01815 0 0 1 -67.4749 -76.9936)"/><text font-family="Arial,Arial_MSFontService,sans-serif" font-weight="400" font-size="24" transform="matrix(0.991882 0 0 0.974204 79.7383 -64)">pause</text><text font-family="Arial,Arial_MSFontService,sans-serif" font-weight="400" font-size="24" transform="matrix(0.991882 0 0 0.974204 80.4939 9)">demi</text><text font-family="Arial,Arial_MSFontService,sans-serif" font-weight="400" font-size="24" transform="matrix(0.991882 0 0 0.974204 132.091 9)">-</text><text font-family="Arial,Arial_MSFontService,sans-serif" font-weight="400" font-size="24" transform="matrix(0.991882 0 0 0.974204 140.018 9)">pause</text><text font-family="Arial,Arial_MSFontService,sans-serif" font-weight="400" font-size="24" transform="matrix(0.991882 0 0 0.974204 80.5752 82)">soupir</text><text font-family="Arial,Arial_MSFontService,sans-serif" font-weight="400" font-size="24" transform="matrix(0.991883 0 0 0.974203 80.4937 155)">demi</text><text font-family="Arial,Arial_MSFontService,sans-serif" font-weight="400" font-size="24" transform="matrix(0.991883 0 0 0.974203 132.091 155)">-</text><text font-family="Arial,Arial_MSFontService,sans-serif" font-weight="400" font-size="24" transform="matrix(0.991883 0 0 0.974203 140.018 155)">soupir</text><text font-family="Arial,Arial_MSFontService,sans-serif" font-weight="400" font-size="24" transform="matrix(0.991882 0 0 0.974204 79.7383 228)">quart de soupir</text><text font-family="Arial,Arial_MSFontService,sans-serif" font-weight="400" font-size="24" transform="matrix(0.991882 0 0 0.974204 79.7383 301)">huitième de soupir</text></g></svg>